HIERARCHY
ROOT Hips
{
	OFFSET	0	0	0
	CHANNELS 6  Xposition Yposition Zposition Xrotation Yrotation Zrotation
	JOINT Spine
	{
		OFFSET	0	6.96713	1.39842
		CHANNELS 3  Xrotation Yrotation Zrotation
		JOINT Spine1
		{
			OFFSET	0	11.9256	-2.12957
			CHANNELS 3  Xrotation Yrotation Zrotation
			JOINT Spine2
			{
				OFFSET	0	9.04001	0.968953
				CHANNELS 3  Xrotation Yrotation Zrotation
				JOINT Spine3
				{
					OFFSET	0	10.8182	3.21564
					CHANNELS 3  Xrotation Yrotation Zrotation
					JOINT Spine4
					{
						OFFSET	0	16.0143	-1.63977
						CHANNELS 3  Xrotation Yrotation Zrotation
						JOINT Neck
						{
							OFFSET	0	7.64514	-5.35586
							CHANNELS 3  Xrotation Yrotation Zrotation
							JOINT Head
							{
								OFFSET	0	9.17843	-2.74714
								CHANNELS 3  Xrotation Yrotation Zrotation
								End Site
								{
									OFFSET	0	19.1448	-0.926361
								}
							}
						}
					}
					JOINT LeftShoulder
					{
						OFFSET	-4.59986	19.4642	-9.17843
						CHANNELS 3  Xrotation Yrotation Zrotation
						JOINT LeftArm
						{
							OFFSET	-10.0419	-2.74714	3.52445
							CHANNELS 3  Xrotation Yrotation Zrotation
							JOINT LeftForeArm
							{
								OFFSET	-34.0852	-1.5557	2.43296
								CHANNELS 3  Xrotation Yrotation Zrotation
								JOINT LeftHand
								{
									OFFSET	-26.9831	-1.86468	1.92602
									CHANNELS 3  Xrotation Yrotation Zrotation
									End Site
									{
										OFFSET	-9.84747	-0.680518	0.702856
									}
								}
							}
						}
					}
					JOINT RightShoulder
					{
						OFFSET	4.59986	19.4642	-9.17843
						CHANNELS 3  Xrotation Yrotation Zrotation
						JOINT RightArm
						{
							OFFSET	10.0419	-2.74714	3.52445
							CHANNELS 3  Xrotation Yrotation Zrotation
							JOINT RightForeArm
							{
								OFFSET	34.0852	-1.5557	2.43296
								CHANNELS 3  Xrotation Yrotation Zrotation
								JOINT RightHand
								{
									OFFSET	26.9831	-1.86468	1.92602
									CHANNELS 3  Xrotation Yrotation Zrotation
									End Site
									{
										OFFSET	9.84747	-0.680518	0.702856
									}
								}
							}
						}
					}
				}
			}
		}
	}
	JOINT LeftUpLeg
	{
		OFFSET	-9.46819	-3.48356	-0.699207
		CHANNELS 3  Xrotation Yrotation Zrotation
		JOINT LeftLeg
		{
			OFFSET	-2.2061	-43.2277	-0.675743
			CHANNELS 3  Xrotation Yrotation Zrotation
			JOINT LeftFoot
			{
				OFFSET	-2.15297	-39.6861	3.413
				CHANNELS 3  Xrotation Yrotation Zrotation
				JOINT LeftToeBase
				{
					OFFSET	0	-4.93976	-13.12
					CHANNELS 3  Xrotation Yrotation Zrotation
					End Site
					{
						OFFSET	0	-1.97591	-7.90362
					}
				}
			}
		}
	}
	JOINT RightUpLeg
	{
		OFFSET	9.46819	-3.48356	-0.699207
		CHANNELS 3  Xrotation Yrotation Zrotation
		JOINT RightLeg
		{
			OFFSET	2.2061	-43.2277	-0.675743
			CHANNELS 3  Xrotation Yrotation Zrotation
			JOINT RightFoot
			{
				OFFSET	2.15297	-39.6861	3.413
				CHANNELS 3  Xrotation Yrotation Zrotation
				JOINT RightToeBase
				{
					OFFSET	0	-4.93976	-13.12
					CHANNELS 3  Xrotation Yrotation Zrotation
					End Site
					{
						OFFSET	0	-1.97591	-7.90362
					}
				}
			}
		}
	}
}
MOTION
Frames: 9
Frame Time: 0.020409
 234.653 95.8984 131.634 5.51427 161.273 -4.71754 1.13611e-05 0.00573739 -0.113456 10.0361 0.0114747 -0.189093 11.4264 0.0344242 -0.189093 10.8614 0.00573739 -0.113456 173.614 179.996 179.962 152.215 -165.888 167.979 170.738 -154.141 172.667 171.856 -152.554 162.084 177.918 -123.31 -89.0065 158.624 -92.9973 156.95 -0 -7.25576 -1.51941 168.824 -158.259 -163.52 153.354 133.859 106.089 36.608 25.459 -15.7307 -0 -10.2504 -6.44778 176.814 160.644 -175.585 164.375 -175.963 179.638 6.88572 -0.00186599 -2.33459 6.86949 0 0 176.811 -161.486 176.089 7.64739 -10.1507 -0.505675 174.975 -179.968 -169.474 8.20178 0 0
 234.541 95.8918 132.588 5.27903 160.29 -4.6759 1.1527e-05 0.00472643 -0.139735 10.0239 0.00945281 -0.232892 11.4473 0.0283584 -0.232892 10.9527 0.00472643 -0.139735 173.378 179.995 179.954 151.556 -165.549 168.074 170.437 -153.187 172.445 171.4 -152.642 161.052 177.658 -123.413 -88.883 160.834 -92.5493 159.137 -0 -7.12648 -2.15192 168.874 -158.91 -163.382 152.247 133.488 106.758 37.1378 25.9739 -16.3716 -0 -9.97672 -5.91628 178.48 161.527 -176.161 161.394 -175.658 179.511 3.40364 0.02093 -2.47026 6.87457 0 0 175.973 -162.189 176.189 7.81599 -9.55398 -0.447116 174.928 -179.944 -169.706 8.19874 0 0
 234.503 95.8526 133.16 5.40899 159.516 -4.5871 180 -179.998 179.803 9.99673 -0.00489554 -0.328209 11.4281 -0.0146866 -0.328209 10.9589 -0.0024478 -0.196926 173.312 179.992 179.935 151.401 -165.202 168.311 170.313 -152.408 172.335 171.117 -152.654 160.408 177.396 -123.343 -88.6215 167.354 -92.4246 165.648 -0 -7.02267 -2.73115 168.981 -159.658 -163.31 151.333 133.29 107.469 37.7204 26.6075 -17.0044 -0 -9.58116 -5.33418 179.71 162.452 -176.341 158.616 -175.436 179.522 179.235 179.854 177.366 6.87756 0 0 175.568 -162.767 176.076 8.10835 -9.07159 -0.450519 174.838 -179.911 -169.926 8.19596 0 0
 234.713 96.1545 134.128 5.51116 158.321 -4.58738 180 -179.999 179.78 9.92648 -0.00145709 -0.365932 11.3701 -0.00437128 -0.365932 10.9487 -0.000728556 -0.219559 173.203 179.991 179.927 151.16 -164.964 168.551 170.175 -151.811 172.251 171.148 -152.753 160.478 177.369 -123.558 -88.2825 174.247 -92.3825 172.548 -0 -6.82347 -3.29261 168.991 -160.444 -163.072 150.267 133.23 108.252 38.3891 27.3383 -17.8817 -0 -9.19321 -4.7398 1.66867 16.1589 3.34014 156.024 -175.103 179.548 176.843 179.895 177.034 6.88269 0 0 175.263 -163.457 176.421 8.33327 -8.61701 -0.370026 173.513 -179.936 -170.302 8.19259 0 0
 234.891 96.4614 134.863 5.60219 157.113 -4.68972 2.00033e-05 0.00464179 -0.246909 9.83642 0.00928342 -0.411515 11.2849 0.0278503 -0.411515 10.9026 0.00464179 -0.246909 173.14 179.99 179.918 151.068 -164.932 168.749 170.132 -151.687 172.266 171.44 -153.084 161.139 177.33 -124.305 -88.4323 179.84 -92.9622 178.21 -0 -6.53854 -3.80048 169.018 -161.017 -162.933 149.591 133.443 108.915 39.1192 28.1632 -18.8762 -0 -8.66082 -3.97326 4.21379 14.5884 2.68087 153.818 -174.817 179.6 175.508 179.956 176.494 6.88675 0 0 175.173 -164.27 176.988 8.51944 -8.03884 -0.50854 172.295 -179.944 -170.84 8.19078 0 0
 235.095 96.6985 135.263 5.76885 156.558 -4.82978 180 -179.998 179.742 9.74686 -0.00431473 -0.429541 11.1968 -0.0129442 -0.429541 10.848 -0.00215741 -0.257725 173.099 179.99 179.915 151.035 -165.077 169.004 170.142 -151.928 172.376 171.875 -153.656 162.123 176.432 -124.911 -88.497 4.79653 -86.2685 3.04404 -0 -6.24167 -4.23101 169.073 -161.745 -162.799 149.28 133.665 109.141 39.8146 28.8873 -19.8992 -0 -7.98121 -2.91648 6.56006 13.0896 2.4956 152.048 -174.73 179.595 174.503 179.911 175.944 6.88991 0 0 175.188 -164.997 177.333 8.76064 -7.55796 -0.399559 171.38 -179.887 -171.528 8.1892 0 0
 235.327 96.8416 135.732 6.04608 155.665 -5.13945 1.16038e-05 0.00241438 -0.275369 9.67013 0.00482866 -0.458948 11.1161 0.014486 -0.458948 10.7846 0.00241438 -0.275369 173.102 179.989 179.909 151.12 -165.21 169.438 170.191 -152.165 172.542 172.333 -154.461 163.156 175.496 -125.639 -88.3026 7.89141 -85.528 6.12202 -0 -5.96766 -4.58146 169.1 -162.291 -162.676 149.153 134.057 109.151 40.4512 29.6245 -20.7034 -0 -7.26742 -1.79482 8.46923 10.9551 2.17738 150.531 -174.286 179.589 173.501 -179.968 175.574 6.89291 0 0 175.381 -165.615 177.853 8.92886 -7.17818 -0.308793 170.847 -179.934 -172.186 8.18858 0 0
 235.618 96.9334 135.996 6.17673 155.195 -5.44437 180 -179.993 179.742 9.58377 -0.0139978 -0.429616 11.0288 -0.0419935 -0.429616 10.7248 -0.00699903 -0.25777 173.078 179.99 179.915 151.136 -165.329 169.718 170.214 -152.369 172.654 172.783 -155.277 164.172 174.412 -126.417 -88.4512 10.0145 -85.0385 8.23877 -0 -5.78605 -4.99605 169.162 -162.779 -162.633 149.482 134.409 108.921 41.0089 30.2173 -21.5446 -0 -6.55133 -0.771363 11.117 9.07094 2.09294 149.315 -174.04 179.757 172.978 179.918 175.267 6.92141 0 0 175.505 -165.959 178.519 9.11401 -6.93771 -0.365896 170.497 -179.954 -172.746 8.18821 0 0
 235.889 96.9797 136.249 6.15871 154.519 -5.64689 180 -179.983 179.746 9.43422 -0.0341508 -0.423549 10.8814 -0.102452 -0.42355 10.6327 -0.0170757 -0.25413 173.011 179.99 179.916 151.09 -165.329 170.267 170.188 -152.283 172.77 173.121 -156.173 164.938 173.314 -127.455 -88.6649 13.8831 -85.0814 12.1392 -0 -5.71153 -5.57996 169.22 -163.521 -162.511 149.571 134.553 108.552 41.3664 30.4746 -21.9722 -0 -5.94682 0.162377 14.4047 6.1267 1.92764 148.784 -173.307 179.565 172.56 179.89 175.054 6.94605 0 0 175.271 -166.354 179.108 9.30706 -6.61166 -0.343501 170.259 -179.946 -173.158 8.18803 0 0
